# xmcd
#
# Track frame offsets:
#       150
#       13674
#       26836
#       38358
#       45738
#       58997
#       68787
#       89166
#       102983
#       112129
#       120548
#       135730
#       145493
#       163423
#       174230
#       185260
#
# Disc length: 2659 seconds
#
# Revision: 0
# Processed by: cddbd v1.5.2PL0 Copyright (c) Steve Scherf et al.
# Submitted via: WaveLab 4.01
#
DISCID=ea0a6110
DTITLE=Linox - Brotherhoodz
DYEAR=1900
DGENRE=
TTITLE0=brotherhoods1
TTITLE1=brotherhoods2
TTITLE2=brotherhoods3
TTITLE3=brotherhoods4
TTITLE4=brotherhoods5
TTITLE5=brotherhoods6
TTITLE6=brotherhoods7
TTITLE7=brotherhoods8
TTITLE8=brotherhoods9
TTITLE9=brotherhoods10
TTITLE10=brotherhoods11
TTITLE11=brotherhoods12
TTITLE12=brotherhoods13
TTITLE13=brotherhoods14
TTITLE14=brotherhoods15
TTITLE15=brotherhoods16
EXTD=
EXTT0=
EXTT1=
EXTT2=
EXTT3=
EXTT4=
EXTT5=
EXTT6=
EXTT7=
EXTT8=
EXTT9=
EXTT10=
EXTT11=
EXTT12=
EXTT13=
EXTT14=
EXTT15=
PLAYORDER=
